<svg xmlns="http://www.w3.org/2000/svg" viewBox="0 0 48 48" width="48" height="48" role="img" aria-label="Biometry / passkey method">
  <path d="M24 6a13 13 0 0 0-13 13v3" fill="none" stroke="#E8963D" stroke-width="3" stroke-linecap="round"/>
  <path d="M24 6a13 13 0 0 1 13 13v3" fill="none" stroke="#E8963D" stroke-width="3" stroke-linecap="round"/>
  <path d="M17 22v-3a7 7 0 0 1 14 0v3" fill="none" stroke="#E8963D" stroke-width="3" stroke-linecap="round"/>
  <path d="M24 15v6c0 8-2 13-6 17" fill="none" stroke="#E8963D" stroke-width="3" stroke-linecap="round"/>
  <path d="M30 21v2c0 9-2.5 14.5-7 19" fill="none" stroke="#E8963D" stroke-width="3" stroke-linecap="round"/>
  <path d="M13 27c0 6-1.5 10-4 13" fill="none" stroke="#E8963D" stroke-width="3" stroke-linecap="round"/>
  <path d="M35 27v1c0 6.5-1.4 11-4 15" fill="none" stroke="#E8963D" stroke-width="3" stroke-linecap="round"/>
</svg>
